<?xml version="1.0" standalone="no"?><!DOCTYPE svg PUBLIC "-//W3C//DTD SVG 1.1//EN" "http://www.w3.org/Graphics/SVG/1.1/DTD/svg11.dtd"><svg t="1744011773416" class="icon" viewBox="0 0 1024 1024" version="1.1" xmlns="http://www.w3.org/2000/svg" p-id="2870" width="256" height="256" xmlns:xlink="http://www.w3.org/1999/xlink"><path d="M448 929.024c-1.792 0-3.584-0.256-5.12-0.512-97.536-16.128-186.624-66.56-251.392-142.08-65.28-76.288-101.376-173.824-101.376-274.432 0-14.336 0.768-27.392 2.048-40.192 1.792-17.664 17.664-30.464 35.072-28.416 17.664 1.792 30.464 17.664 28.416 35.072-1.024 10.496-1.536 21.504-1.536 33.536 0 176.128 125.696 324.608 299.008 353.28 17.408 2.816 29.184 19.456 26.368 36.864-2.56 15.872-16.128 26.88-31.488 26.88zM901.12 574.464h-1.792c-17.664-1.024-31.232-15.872-30.208-33.536 0.512-8.704 1.024-18.688 1.024-28.16 0-175.36-130.56-327.424-303.616-353.792-17.408-2.56-29.44-18.944-26.88-36.352s18.944-29.44 36.352-26.88c98.56 15.104 189.184 65.28 254.976 141.056 66.56 76.544 102.912 174.592 102.912 276.224 0 11.264-0.512 22.016-1.024 31.744-0.768 16.384-14.848 29.696-31.744 29.696z" fill="#023BED" p-id="2871"></path><path d="M156.928 382.976c-1.024 0-2.048 0-3.072-0.256-1.024 0-2.048-0.256-3.072-0.512-2.048-0.512-4.096-1.024-5.888-1.792-2.048-0.768-3.84-1.792-5.632-2.816-0.768-0.512-1.792-1.28-2.56-1.792-0.768-0.768-1.536-1.28-2.304-2.048-0.768-0.768-1.536-1.536-2.048-2.304-0.768-0.768-1.28-1.536-1.792-2.56-1.024-1.792-2.048-3.584-2.816-5.376-0.768-2.048-1.28-4.096-1.792-5.888-0.256-1.024-0.256-2.048-0.512-3.072 0-1.024-0.256-2.048-0.256-3.072 0-1.024 0-2.048 0.256-3.072 0-1.024 0.256-2.048 0.512-3.072 0.512-2.048 1.024-4.096 1.792-5.888 0.768-2.048 1.792-3.84 2.816-5.632 0.512-0.768 1.28-1.792 1.792-2.56 0.512-0.768 1.28-1.536 2.048-2.304 0.768-0.768 1.536-1.536 2.304-2.048 0.768-0.768 1.792-1.28 2.56-1.792 1.792-1.28 3.584-2.048 5.632-2.816 2.048-0.768 3.84-1.536 5.888-1.792 1.024-0.256 2.048-0.256 3.072-0.512 2.048-0.256 4.096-0.256 6.4 0 1.024 0 2.048 0.256 3.072 0.512 2.048 0.512 4.096 1.024 5.888 1.792s3.84 1.792 5.632 2.816c0.768 0.512 1.792 1.28 2.56 1.792 0.768 0.768 1.536 1.28 2.304 2.048 0.768 0.768 1.536 1.536 2.048 2.304 0.768 0.768 1.28 1.536 1.792 2.56 1.024 1.792 2.048 3.584 2.816 5.632 0.768 2.048 1.28 3.84 1.792 5.888 0.256 1.024 0.256 2.048 0.512 3.072 0 1.024 0.256 2.048 0.256 3.072 0 1.024 0 2.048-0.256 3.072 0 1.024-0.256 2.048-0.512 3.072-0.512 2.048-1.024 4.096-1.792 5.888-0.768 2.048-1.792 3.84-2.816 5.376-0.512 0.768-1.28 1.792-1.792 2.56-0.768 0.768-1.28 1.536-2.048 2.304-0.768 0.768-1.536 1.536-2.304 2.048-0.768 0.768-1.792 1.28-2.56 1.792-1.792 1.28-3.584 2.048-5.632 2.816-2.048 0.768-3.84 1.536-5.888 1.792-1.024 0.256-2.048 0.256-3.072 0.512-1.28 0.256-2.304 0.256-3.328 0.256zM205.568 269.056c-13.056-12.032-13.568-32.256-1.536-45.312 12.032-12.8 32.256-13.568 45.312-1.536s13.568 32.256 1.536 45.312c-6.4 6.656-14.848 10.24-23.296 10.24-8.192 0-15.872-2.816-22.016-8.704z m93.696-85.248c-8.448-15.616-2.56-35.072 13.056-43.264 15.616-8.448 34.816-2.56 43.264 13.056 8.448 15.616 2.56 35.072-13.056 43.264-4.864 2.56-9.984 3.84-15.104 3.84-11.264-0.256-22.272-6.144-28.16-16.896zM446.976 159.744c-1.024 0-2.048 0-3.072-0.256-1.024 0-2.048-0.256-3.072-0.512-2.048-0.512-4.096-1.024-5.888-1.792-2.048-0.768-3.84-1.792-5.632-3.072-0.768-0.512-1.792-1.28-2.56-1.792-0.768-0.768-1.536-1.28-2.304-2.048-0.768-0.768-1.536-1.536-2.048-2.304-0.768-0.768-1.28-1.536-1.792-2.56-1.28-1.792-2.048-3.584-2.816-5.376-0.768-2.048-1.536-3.84-1.792-5.888-0.256-1.024-0.256-2.048-0.512-3.072 0-1.024-0.256-2.048-0.256-3.072 0-1.024 0-2.048 0.256-3.072 0-1.024 0.256-2.048 0.512-3.072 0.512-2.048 1.024-4.096 1.792-5.888 0.768-2.048 1.792-3.84 2.816-5.376 0.512-0.768 1.28-1.792 1.792-2.56 0.512-0.768 1.28-1.536 2.048-2.304 0.768-0.768 1.536-1.536 2.304-2.048 0.768-0.768 1.536-1.28 2.56-1.792 1.792-1.024 3.584-2.048 5.632-2.816 2.048-0.768 3.84-1.28 5.888-1.792 1.024-0.256 2.048-0.256 3.072-0.512 2.048-0.256 4.096-0.256 6.4 0 1.024 0 2.048 0.256 3.072 0.512 2.048 0.512 4.096 1.024 5.888 1.792 2.048 0.768 3.84 1.792 5.632 2.816 0.768 0.512 1.792 1.28 2.56 1.792 0.768 0.768 1.536 1.28 2.304 2.048 5.888 5.888 9.472 14.08 9.472 22.528 0 1.024 0 2.048-0.256 3.072 0 1.024-0.256 2.048-0.512 3.072-0.512 2.048-1.024 4.096-1.792 5.888-0.768 2.048-1.792 3.84-2.816 5.376-0.512 0.768-1.28 1.792-1.792 2.56-0.768 0.768-1.28 1.536-2.048 2.304-0.768 0.768-1.536 1.536-2.304 2.048-0.768 0.768-1.536 1.28-2.56 1.792-1.792 1.28-3.584 2.048-5.632 3.072-2.048 0.768-3.84 1.28-5.888 1.792-1.024 0.256-2.048 0.256-3.072 0.512h-3.584zM867.328 705.28c-1.024 0-2.048 0-3.072-0.256-1.024 0-2.048-0.256-3.072-0.512-2.048-0.512-4.096-1.024-5.888-1.792-2.048-0.768-3.84-1.792-5.632-2.816-0.768-0.512-1.792-1.28-2.56-1.792-0.768-0.768-1.536-1.28-2.304-2.048s-1.536-1.536-2.048-2.304c-0.768-0.768-1.28-1.536-1.792-2.56-1.28-1.792-2.048-3.584-3.072-5.632-0.768-2.048-1.28-3.84-1.792-5.888-0.256-1.024-0.256-2.048-0.512-3.072 0-1.024-0.256-2.048-0.256-3.072 0-1.024 0-2.048 0.256-3.072 0-1.024 0.256-2.048 0.512-3.072 0.512-2.048 1.024-4.096 1.792-5.888 0.768-2.048 1.792-3.84 3.072-5.376 0.512-1.024 1.28-1.792 1.792-2.56 0.768-0.768 1.28-1.536 2.048-2.304 0.768-0.768 1.536-1.536 2.304-2.048 0.768-0.768 1.536-1.28 2.56-1.792 1.792-1.28 3.584-2.048 5.632-3.072 2.048-0.768 3.84-1.28 5.888-1.792 1.024-0.256 2.048-0.256 3.072-0.512 9.472-1.024 19.2 2.56 25.856 9.216 0.768 0.768 1.536 1.536 2.048 2.304 0.768 0.768 1.28 1.536 1.792 2.56 1.28 1.792 2.048 3.584 3.072 5.376 0.768 2.048 1.28 3.84 1.792 5.888 0.256 1.024 0.256 2.048 0.512 3.072 0 1.024 0.256 2.048 0.256 3.072 0 1.024 0 2.048-0.256 3.072 0 1.024-0.256 2.048-0.512 3.072-0.512 2.048-1.024 4.096-1.792 5.888-0.768 2.048-1.792 3.84-3.072 5.632-0.512 0.768-1.28 1.792-1.792 2.56-0.768 0.768-1.28 1.536-2.048 2.304s-1.536 1.536-2.304 2.048c-0.768 0.768-1.536 1.28-2.56 1.792-1.792 1.024-3.584 2.048-5.632 2.816-2.048 0.768-3.84 1.28-5.888 1.792-1.024 0.256-2.048 0.256-3.072 0.512-1.28 0.256-2.304 0.256-3.328 0.256zM668.928 870.912c-8.448-15.616-2.56-35.072 13.056-43.264 15.616-8.448 34.816-2.56 43.264 12.8 8.448 15.616 2.56 35.072-12.8 43.52-4.864 2.56-9.984 3.84-15.104 3.84-11.52 0-22.528-6.144-28.416-16.896z m106.496-69.12c-13.056-12.032-13.568-32.256-1.536-45.312 12.032-12.8 32.256-13.568 45.312-1.536 12.8 12.032 13.568 32.256 1.536 45.312-6.4 6.656-14.848 10.24-23.296 10.24-8.192 0-15.872-2.816-22.016-8.704zM577.536 928.768c-1.024 0-2.048 0-3.072-0.256-1.024 0-2.048-0.256-3.072-0.512-2.048-0.512-4.096-1.024-5.888-1.792-2.048-0.768-3.84-1.792-5.632-2.816-0.768-0.512-1.792-1.28-2.56-1.792s-1.536-1.28-2.304-2.048c-5.888-5.888-9.472-14.08-9.472-22.528 0-1.024 0-2.048 0.256-3.072 0-1.024 0.256-2.048 0.512-3.072 0.512-2.048 1.024-4.096 1.792-5.888 0.768-2.048 1.792-3.84 3.072-5.632 0.512-0.768 1.28-1.792 1.792-2.56 0.768-0.768 1.28-1.536 2.048-2.304 0.768-0.768 1.536-1.536 2.304-2.048 0.768-0.768 1.536-1.28 2.56-1.792 1.792-1.28 3.584-2.048 5.632-3.072 2.048-0.768 3.84-1.28 5.888-1.792 1.024-0.256 2.048-0.256 3.072-0.512 9.472-1.024 18.944 2.56 25.856 9.216 0.768 0.768 1.536 1.536 2.048 2.304 0.768 0.768 1.28 1.536 1.792 2.56 1.024 1.792 2.048 3.584 2.816 5.632 0.768 2.048 1.28 3.84 1.792 5.888 0.256 1.024 0.512 2.048 0.512 3.072 0 1.024 0.256 2.048 0.256 3.072 0 8.448-3.328 16.64-9.472 22.528-0.768 0.768-1.536 1.536-2.304 2.048-0.768 0.768-1.536 1.28-2.56 1.792-1.792 1.28-3.584 2.048-5.632 2.816-2.048 0.768-3.84 1.536-5.888 1.792-1.024 0.256-2.048 0.256-3.072 0.512-1.024 0.256-2.048 0.256-3.072 0.256z" fill="#023BED" p-id="2872"></path><path d="M901.888 604.416c-8.192 0-16.384-3.072-22.528-9.216l-90.112-89.6c-12.544-12.544-12.544-32.768-0.256-45.312 12.544-12.544 32.768-12.544 45.312-0.256l67.584 67.072 67.328-67.072c12.544-12.544 32.768-12.544 45.312 0 12.544 12.544 12.544 32.768 0 45.312l-89.856 89.6c-6.4 6.4-14.592 9.472-22.784 9.472z" fill="#023BED" p-id="2873"></path><path d="M212.224 573.952c-8.192 0-16.384-3.072-22.528-9.216l-67.584-67.072-67.328 67.072c-12.544 12.544-32.768 12.544-45.312 0-12.544-12.544-12.544-32.768 0-45.312l89.856-89.6c12.544-12.544 32.768-12.544 45.056 0l90.112 89.6c12.544 12.544 12.544 32.768 0 45.312-5.888 6.144-14.08 9.216-22.272 9.216z" fill="#023BED" p-id="2874"></path></svg>