<?xml version="1.0" standalone="no"?><!DOCTYPE svg PUBLIC "-//W3C//DTD SVG 1.1//EN" "http://www.w3.org/Graphics/SVG/1.1/DTD/svg11.dtd"><svg t="1745308446111" class="icon" viewBox="0 0 1030 1024" version="1.1" xmlns="http://www.w3.org/2000/svg" p-id="3723" xmlns:xlink="http://www.w3.org/1999/xlink" width="201.171875" height="200"><path d="M496.280555 977.284702c-266.557649 0-483.419951-216.862302-483.419951-483.415771C12.860604 227.311282 229.722906 10.44898 496.280555 10.44898s483.419951 216.862302 483.419951 483.419951c0 28.847543-23.393176 52.244898-52.244898 52.244898s-52.244898-23.397355-52.244898-52.244898c0-208.941976-169.98818-378.930155-378.930155-378.930155s-378.930155 169.98818-378.930155 378.930155c0 208.937796 169.98818 378.925976 378.930155 378.925975 28.851722 0 52.244898 23.393176 52.244898 52.244898s-23.393176 52.244898-52.244898 52.244898z" p-id="3724" fill="#ff0000"></path><path d="M783.694367 992.406465c-119.527967 0-216.761992-97.246563-216.761991-216.766171a216.135053 216.135053 0 0 1 12.747755-73.397812c9.767706-27.150629 39.693584-41.240033 66.844212-31.484866 27.150629 9.771886 41.244212 39.697763 31.476506 66.848392a112.013061 112.013061 0 0 0-6.578678 38.034286c0 61.908114 50.368261 112.276376 112.272196 112.276375 61.912294 0 112.284735-50.368261 112.284735-112.276375 0-10.469878-1.425241-20.810188-4.242286-30.72-7.878531-27.760849 8.237976-56.646008 35.990466-64.524539 27.760849-7.870171 56.654367 8.233796 64.524538 35.990465a217.021127 217.021127 0 0 1 8.208719 59.249894c0.008359 119.532147-97.238204 216.770351-216.766172 216.770351z" p-id="3725" fill="#ff0000"></path><path d="M783.698547 828.579004c-28.847543 0-52.244898-23.397355-52.244898-52.244898v-191.053322c0-28.851722 23.397355-52.244898 52.244898-52.244898 28.851722 0 52.244898 23.393176 52.244898 52.244898v191.053322c0 28.847543-23.393176 52.244898-52.244898 52.244898zM496.280555 546.113829c-28.851722 0-52.244898-23.397355-52.244898-52.244898V245.989878c0-28.851722 23.393176-52.244898 52.244898-52.244898s52.244898 23.393176 52.244898 52.244898v247.879053c0 28.847543-23.393176 52.244898-52.244898 52.244898z" p-id="3726" fill="#ff0000"></path></svg>