<?xml version="1.0" encoding="UTF-8"?>
<svg id="_图层_2" data-name="图层 2" xmlns="http://www.w3.org/2000/svg" viewBox="0 0 71.74 78.83">
  <defs>
    <style>
      .cls-1 {
        fill: #001556;
      }

      .cls-1, .cls-2 {
        stroke-width: 0px;
      }

      .cls-2 {
        fill: #33c3ff;
      }
    </style>
  </defs>
  <g id="_图层_1-2" data-name="图层 1">
    <g>
      <path class="cls-2" d="m35.69,47.44c-17.74.65-26.2,15.31-26.53,28.3-3.14,4.17-6.17,3.69-9.13,0-.55-15.27,7.03-27.67,20.92-34.03-5.96-4-8.88-10.16-9.25-18.14C13.59,7.9,22.11.61,35.69,0c13.83.69,24.29,10.15,23.97,23.57.32,11.4-6.89,18.41-7.68,18.43,13.89,6.71,19.57,18.51,19.76,33.74-2.79,4.14-6.2,4.11-9.41,0,1.16-18.3-12.89-27.93-26.64-28.3"/>
      <circle class="cls-1" cx="35.53" cy="24.02" r="17.82"/>
    </g>
  </g>
</svg>