<?xml version="1.0" encoding="UTF-8"?>
<svg id="_图层_2" data-name="图层 2" xmlns="http://www.w3.org/2000/svg" viewBox="0 0 82.07 79.85">
  <defs>
    <style>
      .cls-1 {
        fill: #001556;
      }

      .cls-1, .cls-2 {
        stroke-width: 0px;
      }

      .cls-2 {
        fill: #33c3ff;
      }
    </style>
  </defs>
  <g id="_图层_1-2" data-name="图层 1">
    <g>
      <polygon class="cls-2" points="19.76 13.26 19.76 2.86 31.49 0 37.2 6.12 46.58 6.22 53.41 0 63.1 3.16 63.1 14.89 68.1 18.87 77.28 18.87 82.07 29.27 75.03 35.49 75.03 45.18 82.07 52.11 78.3 62.31 66.37 62.31 63.31 65.68 63.41 75.06 52.5 79.85 46.48 73.73 36.69 73.53 30.37 79.85 21.49 76.49 21.19 67.72 15.99 62.21 5.38 62.11 .69 52.42 7.24 46.61 7.24 36.28 0 29.24 5.43 19.3 13.84 19.07 19.76 13.26"/>
      <circle class="cls-1" cx="41.05" cy="40.16" r="21.34"/>
    </g>
  </g>
</svg>