<?xml version="1.0" encoding="UTF-8"?>
<svg id="_图层_2" data-name="图层 2" xmlns="http://www.w3.org/2000/svg" viewBox="0 0 180.74 180.74">
  <defs>
    <style>
      .cls-1 {
        fill: #3cf;
        stroke-width: 0px;
      }
    </style>
  </defs>
  <g id="_图层_1-2" data-name="图层 1">
    <path class="cls-1" d="m89.39,0c49.91-.54,90.8,39.48,91.34,89.38.54,49.91-39.48,90.8-89.38,91.34-.65,0-1.31,0-1.96,0C39.48,180.19-.54,139.29,0,89.39.54,40.25,40.25.54,89.39,0Zm0,11.3C45.72,10.79,9.91,45.78,9.4,89.45c-.51,43.67,34.48,79.48,78.15,79.98.61,0,1.22,0,1.84,0,43.67-.51,78.66-36.32,78.15-79.98-.5-42.95-35.2-77.65-78.15-78.15Zm-24.59,25.26l.29.46,22.01,38.45c8.22-1.26,15.91,4.38,17.17,12.61,1.26,8.22-4.38,15.91-12.61,17.17-8.22,1.26-15.91-4.38-17.17-12.61-.62-4.04.43-8.15,2.9-11.4l-22.09-38.6c-1.52-2.73-.53-6.17,2.2-7.69,2.5-1.39,5.64-.69,7.32,1.62h-.01Zm24.58-10.2c35.35,0,64,28.65,64,64,.14,3.12-2.28,5.76-5.4,5.89-3.12.14-5.76-2.28-5.89-5.4,0-.16,0-.33,0-.49,0-29.11-23.6-52.71-52.72-52.71-3.36,0-6.71.32-10,.96-3.09.46-5.96-1.67-6.42-4.76-.43-2.91,1.43-5.66,4.29-6.33,4-.77,8.07-1.16,12.15-1.15Zm-39.72,20.86c2.32,2.08,2.52,5.65.44,7.98-8.68,9.65-13.47,22.18-13.44,35.16-.19,3.12-2.87,5.49-5.99,5.3-2.85-.18-5.12-2.45-5.3-5.3-.03-15.76,5.79-30.97,16.32-42.7,2.08-2.32,5.64-2.51,7.97-.44Zm39.72,39.36c-2.08,0-3.77,1.69-3.77,3.77s1.69,3.77,3.77,3.77h0c2.08,0,3.77-1.69,3.77-3.77s-1.69-3.77-3.77-3.77h0Z"/>
  </g>
</svg>